<svg width="400" height="400" viewBox="0 0 400 400" xmlns="http://www.w3.org/2000/svg">
  <!-- Fondo circular -->
  <circle cx="200" cy="200" r="200" fill="#f8f9fa"/>
  
  <!-- Cuello -->
  <rect x="175" y="235" width="50" height="35" fill="#ffd1b3"/>
  
  <!-- Cuerpo/Ropa -->
  <ellipse cx="200" cy="330" rx="100" ry="110" fill="#0344d4"/>
  <rect x="100" y="250" width="200" height="120" fill="#0344d4"/>
  
  <!-- Hombros -->
  <ellipse cx="140" cy="280" rx="45" ry="35" fill="#0344d4"/>
  <ellipse cx="260" cy="280" rx="45" ry="35" fill="#0344d4"/>
  
  <!-- Cuello de blusa -->
  <path d="M 175 260 L 175 250 L 200 245 L 225 250 L 225 260 Z" fill="#ffffff" opacity="0.9"/>
  
  <!-- Cabeza -->
  <ellipse cx="200" cy="160" rx="65" ry="75" fill="#ffd1b3"/>
  
  <!-- Orejas -->
  <ellipse cx="140" cy="160" rx="15" ry="20" fill="#ffc9a3"/>
  <ellipse cx="260" cy="160" rx="15" ry="20" fill="#ffc9a3"/>
  
  <!-- Cabello base rubio -->
  <ellipse cx="200" cy="110" rx="75" ry="65" fill="#f4d03f"/>
  <ellipse cx="200" cy="100" rx="70" ry="55" fill="#f9e79f"/>
  
  <!-- Mechones laterales que cubren orejas -->
  <ellipse cx="145" cy="140" rx="25" ry="50" fill="#f4d03f"/>
  <ellipse cx="255" cy="140" rx="25" ry="50" fill="#f4d03f"/>
  
  <!-- Parte superior del cabello -->
  <path d="M 130 120 Q 150 80 200 75 Q 250 80 270 120 L 260 130 Q 240 100 200 95 Q 160 100 140 130 Z" fill="#f9e79f"/>
  
  <!-- Coleta alta -->
  <ellipse cx="200" cy="80" rx="30" ry="25" fill="#f4d03f"/>
  <ellipse cx="200" cy="75" rx="28" ry="22" fill="#f9e79f"/>
  <!-- Goma de coleta -->
  <ellipse cx="200" cy="90" rx="25" ry="8" fill="#0344d4"/>
  <!-- Cola de la coleta -->
  <path d="M 175 90 Q 170 60 165 30 Q 175 50 180 70 L 185 90" fill="#f4d03f"/>
  <path d="M 225 90 Q 230 60 235 30 Q 225 50 220 70 L 215 90" fill="#f4d03f"/>
  <path d="M 190 90 Q 195 50 200 20 Q 205 50 210 90" fill="#f9e79f"/>
  
  <!-- Flequillo -->
  <path d="M 160 120 Q 165 105 175 115" fill="#f4d03f"/>
  <path d="M 180 115 Q 185 100 195 110" fill="#f9e79f"/>
  <path d="M 205 110 Q 215 100 220 115" fill="#f9e79f"/>
  <path d="M 225 115 Q 235 105 240 120" fill="#f4d03f"/>
  
  <!-- Antifaz elegante -->
  <ellipse cx="200" cy="152" rx="70" ry="20" fill="#0344d4" opacity="0.95"/>
  <ellipse cx="200" cy="152" rx="70" ry="18" fill="none" stroke="#fca32d" stroke-width="2" opacity="0.7"/>
  <!-- Lazos del antifaz -->
  <path d="M 130 152 Q 115 155 105 150" stroke="#0344d4" stroke-width="3" fill="none" stroke-linecap="round"/>
  <path d="M 270 152 Q 285 155 295 150" stroke="#0344d4" stroke-width="3" fill="none" stroke-linecap="round"/>
  <circle cx="107" cy="150" r="4" fill="#fca32d"/>
  <circle cx="293" cy="150" r="4" fill="#fca32d"/>
  
  <!-- Cejas delicadas -->
  <path d="M 165 145 Q 178 140 188 143" stroke="#d4a574" stroke-width="2.5" fill="none" stroke-linecap="round"/>
  <path d="M 212 143 Q 222 140 235 145" stroke="#d4a574" stroke-width="2.5" fill="none" stroke-linecap="round"/>
  
  <!-- Ojos expresivos -->
  <ellipse cx="175" cy="155" rx="12" ry="14" fill="#ffffff"/>
  <ellipse cx="225" cy="155" rx="12" ry="14" fill="#ffffff"/>
  <circle cx="175" cy="157" r="8" fill="#4a90e2"/>
  <circle cx="225" cy="157" r="8" fill="#4a90e2"/>
  <circle cx="177" cy="154" r="3" fill="#000000"/>
  <circle cx="227" cy="154" r="3" fill="#000000"/>
  <circle cx="179" cy="155" r="2" fill="#ffffff"/>
  <circle cx="229" cy="155" r="2" fill="#ffffff"/>
  
  <!-- Pestañas -->
  <path d="M 163 148 Q 165 145 167 147" stroke="#333" stroke-width="1.5" fill="none"/>
  <path d="M 183 148 Q 185 145 187 147" stroke="#333" stroke-width="1.5" fill="none"/>
  <path d="M 213 148 Q 215 145 217 147" stroke="#333" stroke-width="1.5" fill="none"/>
  <path d="M 233 148 Q 235 145 237 147" stroke="#333" stroke-width="1.5" fill="none"/>
  
  <!-- Nariz delicada -->
  <path d="M 200 170 L 198 180 L 200 182" stroke="#e6b896" stroke-width="1.8" fill="none" stroke-linecap="round"/>
  <path d="M 198 180 L 195 182" stroke="#e6b896" stroke-width="1.5" fill="none" stroke-linecap="round"/>
  
  <!-- Sonrisa amable -->
  <path d="M 180 195 Q 200 208 220 195" stroke="#e57373" stroke-width="3.5" fill="none" stroke-linecap="round"/>
  <path d="M 185 196 Q 200 204 215 196" stroke="#ffb3ba" stroke-width="1.5" fill="none" stroke-linecap="round" opacity="0.6"/>
  
  <!-- Rubor en mejillas -->
  <ellipse cx="160" cy="175" rx="12" ry="8" fill="#ffb3ba" opacity="0.3"/>
  <ellipse cx="240" cy="175" rx="12" ry="8" fill="#ffb3ba" opacity="0.3"/>
  
  <!-- Collar/accesorio -->
  <ellipse cx="200" cy="248" rx="30" ry="6" fill="none" stroke="#fca32d" stroke-width="3"/>
  <circle cx="200" cy="248" r="5" fill="#fca32d"/>
</svg>
